<svg aria-hidden="true" style="position: absolute; width: 0; height: 0; overflow: hidden;" version="1.1" xmlns="http://www.w3.org/2000/svg" xmlns:xlink="http://www.w3.org/1999/xlink">
<defs>
<symbol id="icon-burger" viewBox="0 0 32 32">
<path fill="#ef3959" style="fill: var(--color1, #ef3959)" d="M26.667 24c0.34 0 0.667 0.131 0.914 0.364s0.396 0.552 0.416 0.891c0.020 0.339-0.090 0.673-0.309 0.934s-0.528 0.428-0.865 0.468l-0.156 0.009h-21.333c-0.34-0-0.667-0.131-0.914-0.364s-0.396-0.552-0.416-0.891c-0.020-0.339 0.090-0.673 0.309-0.934s0.528-0.428 0.865-0.468l0.156-0.009h21.333zM26.667 14.667c0.354 0 0.693 0.14 0.943 0.39s0.391 0.589 0.391 0.943-0.14 0.693-0.391 0.943c-0.25 0.25-0.589 0.391-0.943 0.391h-21.333c-0.354 0-0.693-0.14-0.943-0.391s-0.391-0.589-0.391-0.943 0.14-0.693 0.391-0.943c0.25-0.25 0.589-0.39 0.943-0.39h21.333zM26.667 5.333c0.354 0 0.693 0.14 0.943 0.391s0.391 0.589 0.391 0.943-0.14 0.693-0.391 0.943c-0.25 0.25-0.589 0.39-0.943 0.39h-21.333c-0.354 0-0.693-0.14-0.943-0.391s-0.391-0.589-0.391-0.943c0-0.354 0.14-0.693 0.391-0.943s0.589-0.391 0.943-0.391h21.333z"></path>
</symbol>
<symbol id="select-arrow"  viewBox="0 0 12 8" fill="none" xmlns="http://www.w3.org/2000/svg">
  <path d="M5.99957 7.16669C5.86686 7.16731 5.7395 7.11444 5.64624 7.02002L0.312906 1.68669C0.129333 1.48968 0.13475 1.18268 0.325158 0.992272C0.515566 0.801864 0.822566 0.796448 1.01957 0.98002L5.99957 5.96002L10.9796 0.98002C11.1766 0.796448 11.4836 0.801864 11.674 0.992272C11.8644 1.18268 11.8698 1.48968 11.6862 1.68669L6.35291 7.02002C6.25965 7.11444 6.13228 7.16731 5.99957 7.16669Z" fill="#202053" />
</symbol>
<symbol id="logotype" viewBox="0 0 34 32">
<path fill="#ec3b5b" style="fill: var(--color2, #ec3b5b)" d="M2.618 0.215c-0.322 0.254-0.707 0.73-0.863 1.065-0.061 0.132-0.151 0.324-0.2 0.427-0.069 0.147-0.088 0.351-0.088 0.96 0.001 0.678 0.015 0.803 0.114 1.013 0.063 0.132 0.129 0.286 0.148 0.343 0.063 0.188 0.323 0.56 0.393 0.562 0.165 0.005 1.131-1.097 1.131-1.29 0-0.027 0.065-0.185 0.145-0.352 0.14-0.292 0.145-0.337 0.147-1.183 0.001-0.648-0.019-0.929-0.076-1.067-0.042-0.103-0.092-0.199-0.109-0.213s-0.062-0.129-0.099-0.253c-0.058-0.199-0.085-0.227-0.219-0.227-0.098 0-0.251 0.077-0.425 0.215zM16.618 0.418c-0.015 0.025-0.346 0.061-0.735 0.081s-0.78 0.058-0.869 0.085c-0.089 0.027-0.318 0.073-0.508 0.103-0.435 0.066-1.060 0.193-1.2 0.244-0.059 0.021-0.155 0.057-0.213 0.079s-0.251 0.078-0.427 0.124c-0.367 0.095-0.939 0.283-1.173 0.385-0.088 0.038-0.328 0.135-0.533 0.216-0.32 0.125-0.775 0.335-1.103 0.507-0.964 0.507-1.708 0.944-1.742 1.023-0.010 0.023-0.040 0.041-0.067 0.041-0.080 0-0.838 0.552-1.648 1.2-0.556 0.445-1.483 1.438-2.391 2.561-0.024 0.030-0.090 0.126-0.145 0.213s-0.115 0.171-0.132 0.185c-0.037 0.032-0.302 0.423-0.489 0.72-0.074 0.117-0.21 0.331-0.302 0.476s-0.168 0.293-0.168 0.33-0.033 0.1-0.073 0.14c-0.101 0.101-0.247 0.392-0.247 0.492 0 0.046-0.020 0.083-0.044 0.083s-0.106 0.138-0.183 0.307c-0.356 0.786-0.467 1.045-0.467 1.093 0 0.028-0.038 0.139-0.085 0.246-0.142 0.324-0.167 0.393-0.288 0.808-0.064 0.22-0.137 0.448-0.162 0.507s-0.056 0.155-0.069 0.213c-0.041 0.188-0.030-0.306 0.017-0.72 0.059-0.528 0.19-1.323 0.295-1.787 0.046-0.205 0.109-0.505 0.14-0.667 0.053-0.282 0.135-0.562 0.477-1.639 0.086-0.271 0.156-0.529 0.156-0.573s0.024-0.081 0.053-0.081c0.029 0 0.053-0.035 0.053-0.078s0.034-0.157 0.076-0.253c0.042-0.096 0.114-0.263 0.16-0.37s0.084-0.207 0.084-0.223c0-0.1 0.912-1.973 0.973-2 0.022-0.010 0.040-0.039 0.040-0.066s0.092-0.198 0.203-0.382c0.112-0.184 0.22-0.37 0.241-0.414s0.108-0.188 0.195-0.32c0.087-0.132 0.204-0.326 0.262-0.43s0.142-0.222 0.188-0.26c0.1-0.083 0.111-0.217 0.017-0.217-0.113 0-0.782 0.882-1.506 1.985-0.683 1.040-0.827 1.282-0.827 1.383 0 0.049-0.021 0.097-0.046 0.107-0.067 0.026-0.967 1.825-0.967 1.932 0 0.018-0.058 0.154-0.13 0.301s-0.146 0.346-0.166 0.44-0.054 0.195-0.076 0.224c-0.045 0.061-0.316 0.855-0.455 1.333-0.051 0.176-0.113 0.36-0.137 0.409s-0.061 0.217-0.080 0.373c-0.020 0.157-0.054 0.309-0.076 0.338s-0.052 0.137-0.066 0.24-0.052 0.319-0.084 0.48c-0.224 1.143-0.224 5.051-0 6.32 0.031 0.176 0.069 0.404 0.084 0.507s0.045 0.211 0.068 0.24 0.058 0.195 0.079 0.369c0.021 0.173 0.058 0.353 0.083 0.4 0.076 0.144 0.246 0.865 0.397 1.685 0.136 0.738 0.149 0.799 0.189 0.853 0.022 0.029 0.056 0.17 0.077 0.314s0.058 0.311 0.082 0.373c0.024 0.062 0.097 0.293 0.162 0.513s0.161 0.499 0.215 0.621c0.054 0.121 0.115 0.289 0.135 0.373s0.053 0.177 0.072 0.206 0.13 0.269 0.244 0.533c0.367 0.844 0.891 1.807 1.409 2.587 0.179 0.27 0.687 0.973 0.783 1.082 0.062 0.071 0.134 0.166 0.16 0.211 0.1 0.174 0.614 0.741 1.365 1.507l0.785 0.8-0.305 0.040c-0.168 0.022-0.438 0.064-0.601 0.093s-0.396 0.053-0.517 0.053-0.233 0.021-0.249 0.046c-0.016 0.026-0.275 0.064-0.576 0.085-0.47 0.033-0.842 0.129-0.842 0.216 0 0.014 6.936 0.025 15.413 0.025s15.413-0.018 15.413-0.040c0-0.098-0.343-0.168-0.987-0.202-0.381-0.020-0.717-0.056-0.747-0.079s-0.221-0.053-0.427-0.066c-0.205-0.013-0.661-0.050-1.013-0.083-1.872-0.175-2.931-0.256-4.267-0.327-0.616-0.033-1.236-0.085-1.377-0.117-0.143-0.032-0.652-0.050-1.147-0.042-0.489 0.008-1.49-0.016-2.223-0.054-1.863-0.095-6.434-0.096-8.16-0.001-1.784 0.098-2.627 0.088-2.864-0.033-0.314-0.16-0.947-0.607-1.771-1.249-0.422-0.328-1.361-1.226-1.766-1.687-0.595-0.678-0.702-0.835-0.733-1.072-0.016-0.124-0.094-0.4-0.174-0.613-0.243-0.647-0.387-1.065-0.484-1.401-0.051-0.176-0.109-0.344-0.13-0.373s-0.056-0.185-0.077-0.347c-0.021-0.161-0.072-0.449-0.112-0.64-0.116-0.554-0.098-1.929 0.036-2.667 0.061-0.337 0.132-0.661 0.158-0.72s0.094-0.255 0.152-0.437c0.058-0.182 0.14-0.41 0.183-0.507 0.314-0.71 0.495-1.085 0.529-1.1 0.022-0.010 0.040-0.038 0.040-0.064 0-0.125 0.539-0.982 0.998-1.586 0.344-0.452 0.389-0.546 0.262-0.546-0.124 0-1.015 0.966-1.447 1.569-0.059 0.082-0.179 0.249-0.267 0.371s-0.195 0.282-0.237 0.355c-0.389 0.662-0.536 0.944-0.536 1.024 0 0.052-0.024 0.095-0.053 0.095s-0.053 0.047-0.053 0.104c0 0.057-0.021 0.117-0.047 0.133s-0.064 0.119-0.085 0.229c-0.021 0.11-0.053 0.224-0.072 0.254-0.098 0.154-0.23 1.057-0.259 1.774-0.018 0.447-0.053 0.813-0.077 0.813s-0.051 0.33-0.059 0.733c-0.010 0.483-0.031 0.697-0.062 0.627-0.026-0.059-0.116-0.254-0.2-0.434s-0.153-0.357-0.153-0.392c0-0.035-0.034-0.14-0.076-0.232-0.1-0.221-0.329-0.906-0.404-1.208-0.033-0.132-0.096-0.384-0.14-0.56-0.073-0.293-0.161-0.746-0.293-1.52-0.087-0.508-0.205-1.964-0.236-2.907-0.023-0.696-0.005-1.142 0.075-1.92 0.058-0.557 0.129-1.109 0.158-1.227s0.081-0.357 0.115-0.533 0.082-0.357 0.105-0.402c0.024-0.045 0.061-0.189 0.082-0.32s0.058-0.262 0.080-0.291c0.023-0.029 0.059-0.137 0.081-0.238s0.059-0.222 0.082-0.267 0.133-0.334 0.244-0.642c0.111-0.308 0.245-0.624 0.298-0.702s0.096-0.159 0.096-0.181c0-0.051 0.39-0.843 0.433-0.877 0.018-0.015 0.076-0.111 0.128-0.213 0.107-0.209 0.553-0.902 0.638-0.991 0.030-0.031 0.102-0.145 0.16-0.253s0.121-0.196 0.14-0.196 0.139-0.138 0.266-0.307c0.57-0.758 1.9-2.072 2.577-2.547 0.084-0.059 0.215-0.157 0.292-0.219 0.413-0.331 1.857-1.207 2.407-1.46 0.044-0.020 0.212-0.097 0.373-0.171s0.533-0.225 0.827-0.336c0.293-0.111 0.581-0.22 0.64-0.243s0.251-0.082 0.427-0.132c0.176-0.049 0.368-0.11 0.427-0.136s0.299-0.084 0.533-0.131 0.523-0.109 0.64-0.139c0.312-0.080 1.265-0.207 1.787-0.238 0.249-0.015 0.489-0.040 0.533-0.056 0.334-0.121 3.296 0.087 4.213 0.295 0.132 0.030 0.432 0.091 0.667 0.135 0.462 0.087 0.803 0.176 0.939 0.246 0.047 0.024 0.197 0.060 0.333 0.081s0.248 0.055 0.248 0.078c0 0.022 0.097 0.056 0.216 0.075s0.257 0.055 0.307 0.080c0.211 0.106 0.476 0.207 0.637 0.242 0.095 0.021 0.286 0.096 0.426 0.167 0.267 0.135 0.572 0.175 0.536 0.069-0.011-0.033-0.331-0.218-0.711-0.409s-0.727-0.368-0.771-0.393c-0.044-0.024-0.134-0.068-0.2-0.096s-0.222-0.098-0.347-0.153c-0.125-0.056-0.287-0.12-0.36-0.142s-0.229-0.082-0.347-0.133c-0.307-0.135-0.853-0.312-1.253-0.409-0.191-0.046-0.395-0.102-0.453-0.125-0.3-0.117-0.45-0.157-0.693-0.187-0.147-0.018-0.315-0.054-0.373-0.080-0.104-0.046-0.514-0.113-1.28-0.211-0.205-0.026-0.559-0.049-0.787-0.051-0.238-0.002-0.413-0.026-0.413-0.057 0-0.066-1.954-0.074-1.995-0.008zM29.227 0.741c-0.044 0.024-0.177 0.059-0.297 0.077-0.218 0.033-0.69 0.263-1.071 0.521-0.292 0.198-0.819 0.767-0.819 0.884 0 0.069 0.117 0.158 0.387 0.294 0.606 0.307 0.767 0.359 1.304 0.422 0.519 0.061 1.507-0.001 1.709-0.108 0.143-0.076 0.48-0.219 0.515-0.219 0.102 0 0.639-0.384 0.903-0.645 0.281-0.278 0.303-0.317 0.241-0.416-0.038-0.060-0.133-0.136-0.213-0.169s-0.185-0.104-0.234-0.159c-0.049-0.054-0.159-0.114-0.244-0.133s-0.154-0.053-0.154-0.076c0-0.023-0.138-0.082-0.307-0.131s-0.38-0.112-0.47-0.141c-0.2-0.063-1.138-0.066-1.25-0.004zM6.974 1.626c-0.704 0.178-1.305 0.671-1.604 1.315-0.142 0.306-0.12 0.393 0.116 0.464 0.39 0.117 1.554 0.040 1.554-0.103 0-0.020 0.076-0.051 0.169-0.069 0.176-0.035 0.584-0.322 0.884-0.619 0.207-0.206 0.514-0.725 0.47-0.796-0.050-0.080-0.591-0.22-0.952-0.245-0.193-0.014-0.458 0.009-0.637 0.054zM28.453 3.498c-0.21 0.030-0.556 0.126-0.707 0.197-0.12 0.056-0.163 0.219-0.073 0.275 0.026 0.016 0.064 0.096 0.084 0.176s0.095 0.224 0.166 0.317 0.129 0.19 0.129 0.215c0 0.074 0.572 0.776 0.787 0.965 0.411 0.362 1.256 0.864 1.454 0.864 0.047 0 0.108 0.023 0.135 0.051 0.162 0.162 1.85 0.279 2.237 0.155 0.251-0.080 0.304-0.14 0.236-0.266-0.027-0.051-0.050-0.133-0.050-0.181 0-0.287-0.646-1.327-1.090-1.754-0.243-0.234-0.826-0.621-1.070-0.711-0.088-0.032-0.292-0.11-0.453-0.173-0.23-0.090-0.437-0.118-0.96-0.133-0.367-0.010-0.739-0.008-0.827 0.004zM26.203 3.8c-0.099 0.152-0.174 0.285-0.206 0.36-0.273 0.649-0.291 0.735-0.291 1.385 0 0.551 0.019 0.688 0.14 1.026 0.077 0.214 0.164 0.42 0.194 0.457s0.093 0.136 0.14 0.221c0.119 0.211 0.333 0.452 0.497 0.56 0.137 0.090 0.138 0.089 0.319-0.166 0.1-0.141 0.252-0.399 0.338-0.575 0.141-0.289 0.158-0.383 0.176-0.975 0.016-0.516 0.001-0.714-0.070-0.933-0.050-0.153-0.106-0.29-0.126-0.305s-0.083-0.123-0.141-0.24c-0.131-0.262-0.721-0.88-0.84-0.88-0.048 0-0.107 0.030-0.13 0.067zM7.062 13.026c-0.56 0.368-0.916 0.814-1.183 1.481-0.124 0.309-0.149 1.277-0.043 1.611 0.14 0.439 0.342 0.842 0.422 0.842 0.175 0 1.048-0.82 1.048-0.984 0-0.019 0.044-0.081 0.098-0.139s0.175-0.339 0.267-0.624c0.14-0.431 0.169-0.602 0.168-1.010-0-0.27-0.022-0.546-0.047-0.613s-0.089-0.261-0.142-0.429c-0.115-0.37-0.2-0.39-0.589-0.134zM9.493 16.564c-0.939 0.223-1.341 0.446-1.804 1.001-0.459 0.55-0.65 1.086-0.65 1.827v0.399l0.28-0.036c0.154-0.020 0.316-0.053 0.36-0.075s0.206-0.069 0.36-0.105 0.293-0.087 0.309-0.112c0.016-0.026 0.118-0.088 0.226-0.139 0.277-0.13 0.976-0.824 1.133-1.125 0.072-0.138 0.144-0.263 0.159-0.278 0.067-0.063 0.319-0.95 0.319-1.123-0-0.328-0.123-0.369-0.694-0.234z"></path>
<path fill="#232354" style="fill: var(--color3, #232354)" d="M24.080 6.487c-0.088 0.013-0.208 0.043-0.267 0.067s-0.167 0.067-0.24 0.096c-0.27 0.104-1.089 0.528-1.345 0.696-0.145 0.095-0.274 0.173-0.287 0.173-0.029 0-0.679 0.439-0.715 0.482-0.015 0.018-0.104 0.078-0.199 0.133l-0.172 0.1-0.441-0.221c-0.898-0.449-1.064-0.493-1.85-0.494-0.579-0-1.172 0.109-1.222 0.226-0.010 0.022-0.060 0.041-0.112 0.041s-0.194 0.072-0.315 0.16c-0.122 0.088-0.24 0.16-0.264 0.16-0.048 0-0.7 0.623-0.948 0.907-0.231 0.265-0.523 0.764-0.699 1.2-0.129 0.319-0.151 0.447-0.151 0.88-0 0.467 0.083 0.908 0.196 1.037 0.024 0.028 0.044 0.089 0.044 0.137 0 0.074 0.267 0.678 0.432 0.976 0.029 0.053 0.14 0.257 0.246 0.453 0.57 1.056 1.252 1.928 1.917 2.45 0.315 0.247 0.805 0.494 0.982 0.494 0.083 0 0.166 0.024 0.184 0.053 0.052 0.084 0.295 0.063 0.614-0.053 0.744-0.269 0.996-1.111 0.751-2.507-0.033-0.191-0.083-0.395-0.11-0.453-0.061-0.132-0.215-0.603-0.214-0.655 0.001-0.060 0.247 0.358 0.415 0.709 0.196 0.407 0.331 0.861 0.331 1.111 0 0.107 0.024 0.195 0.053 0.195 0.065 0 0.071 0.303 0.007 0.342-0.026 0.016-0.058 0.143-0.072 0.283-0.067 0.667-0.732 1.396-1.278 1.4-0.079 0.001-0.158 0.025-0.176 0.055-0.040 0.065-0.383 0.071-0.422 0.007-0.016-0.025-0.141-0.061-0.278-0.080-0.563-0.077-1.438-0.773-1.928-1.533-0.121-0.187-0.241-0.366-0.268-0.397s-0.077-0.143-0.112-0.249c-0.035-0.106-0.098-0.222-0.141-0.257s-0.077-0.097-0.077-0.138c0-0.040-0.021-0.073-0.047-0.073-0.101 0-0.158 0.149-0.194 0.507-0.021 0.205-0.057 0.397-0.079 0.427-0.042 0.056-0.055 0.119-0.181 0.907-0.042 0.264-0.124 0.696-0.182 0.96s-0.121 0.612-0.141 0.773c-0.019 0.161-0.055 0.341-0.080 0.4-0.082 0.197-0.216 0.678-0.216 0.776 0 0.054-0.021 0.111-0.047 0.127s-0.063 0.096-0.083 0.176c-0.058 0.241-0.35 0.81-0.666 1.294-0.163 0.249-0.31 0.465-0.327 0.48-0.034 0.029-0.662 0.878-0.861 1.164-0.068 0.097-0.162 0.217-0.21 0.267-0.412 0.423-1.105 1.868-1.23 2.567-0.035 0.192-0.079 0.361-0.1 0.376-0.048 0.035-0.094 0.355-0.166 1.155-0.072 0.793 0.024 2.314 0.168 2.658 0.025 0.059 0.073 0.31 0.108 0.559s0.079 0.477 0.099 0.507c0.019 0.030 0.072 0.174 0.117 0.321l0.082 0.267 0.425-0.005c0.722-0.008 3.184-0.124 3.211-0.151 0.014-0.014-0.082-0.153-0.214-0.308s-0.318-0.451-0.414-0.656c-0.162-0.347-0.176-0.422-0.199-1.067-0.014-0.381 0.001-0.849 0.032-1.040 0.072-0.44 0.183-0.916 0.232-0.992 0.021-0.032 0.054-0.158 0.073-0.28s0.052-0.222 0.071-0.222 0.067-0.090 0.106-0.2c0.071-0.205 0.437-0.979 0.485-1.027 0.015-0.015 0.072-0.111 0.127-0.213s0.158-0.294 0.228-0.424c0.070-0.131 0.163-0.277 0.206-0.324s0.078-0.1 0.078-0.117c0-0.042 0.633-0.978 0.902-1.335 0.12-0.159 0.218-0.304 0.218-0.322s0.054-0.092 0.12-0.163c0.141-0.154 0.186-0.211 0.359-0.461 0.071-0.103 0.144-0.199 0.162-0.213s0.075-0.219 0.126-0.453c0.051-0.235 0.116-0.468 0.143-0.519s0.050-0.125 0.050-0.165c0-0.116 0.323-0.735 0.517-0.992 0.098-0.13 0.192-0.298 0.209-0.373 0.088-0.404 0.283-0.964 0.335-0.964 0.074 0 0.588 0.516 0.681 0.683 0.078 0.141 0.168 0.201 0.445 0.297 0.52 0.181 0.858 0.408 0.965 0.646 0.026 0.059 0.068 0.143 0.093 0.187 0.13 0.23 0.169 0.334 0.2 0.525 0.023 0.142 0.092 0.265 0.214 0.38 0.216 0.204 0.233 0.384 0.065 0.679-0.125 0.22-0.538 0.72-0.847 1.026-0.455 0.451-0.495 1.052-0.108 1.657 0.103 0.161 0.218 0.445 0.218 0.538 0 0.052 0.024 0.11 0.053 0.128 0.067 0.041 0.072 1.692 0.005 1.763-0.026 0.028-0.061 0.147-0.076 0.264-0.049 0.369-0.182 0.998-0.3 1.413-0.092 0.325-0.119 0.613-0.146 1.528l-0.033 1.128 0.342 0.030c0.309 0.027 1.886 0.090 2.688 0.107l0.32 0.007 0.037-0.933c0.092-2.325 0.152-6.002 0.134-8.347l-0.019-2.56-0.175-0.533c-0.096-0.293-0.193-0.569-0.214-0.613s-0.081-0.26-0.134-0.48c-0.052-0.22-0.116-0.441-0.141-0.49s-0.071-0.35-0.101-0.667c-0.030-0.317-0.081-0.84-0.114-1.163-0.083-0.824 0.040-2.066 0.252-2.533 0.047-0.103 0.133-0.291 0.193-0.418s0.285-0.439 0.501-0.693c0.237-0.279 0.48-0.641 0.615-0.915 0.291-0.592 0.303-0.62 0.369-0.933 0.133-0.63 0.165-1.004 0.145-1.707-0.019-0.66-0.036-0.777-0.151-1.010-0.232-0.468-0.633-0.664-1.197-0.582zM17.627 25.953c-0.059 0.015-0.182 0.062-0.275 0.104s-0.19 0.076-0.217 0.076c-0.027 0-0.095 0.042-0.152 0.094s-0.169 0.136-0.25 0.188c-0.182 0.117-0.2 0.267-0.027 0.224 0.251-0.063 1.138-0.109 1.433-0.074 0.249 0.029 0.344 0.071 0.499 0.217 0.252 0.238 0.381 0.689 0.3 1.052-0.030 0.135-0.070 0.354-0.090 0.486s-0.053 0.264-0.075 0.293-0.056 0.125-0.076 0.213c-0.051 0.229-0.333 0.932-0.602 1.503-0.127 0.269-0.231 0.516-0.231 0.549 0 0.040 0.137 0.054 0.412 0.044l0.412-0.016 0.199-0.4c0.97-1.946 0.866-3.781-0.25-4.425-0.212-0.122-0.764-0.192-1.013-0.129z"></path>
</symbol>
</defs>
</svg>
