<svg aria-hidden="true" style="position: absolute; width: 0; height: 0; overflow: hidden;" version="1.1" xmlns="http://www.w3.org/2000/svg" xmlns:xlink="http://www.w3.org/1999/xlink">
<defs>
<symbol id="icon-burger" viewBox="0 0 32 32">
<path fill="#ef3959" style="fill: var(--color1, #ef3959)" d="M26.667 24c0.34 0 0.667 0.131 0.914 0.364s0.396 0.552 0.416 0.891c0.020 0.339-0.090 0.673-0.309 0.934s-0.528 0.428-0.865 0.468l-0.156 0.009h-21.333c-0.34-0-0.667-0.131-0.914-0.364s-0.396-0.552-0.416-0.891c-0.020-0.339 0.090-0.673 0.309-0.934s0.528-0.428 0.865-0.468l0.156-0.009h21.333zM26.667 14.667c0.354 0 0.693 0.14 0.943 0.39s0.391 0.589 0.391 0.943-0.14 0.693-0.391 0.943c-0.25 0.25-0.589 0.391-0.943 0.391h-21.333c-0.354 0-0.693-0.14-0.943-0.391s-0.391-0.589-0.391-0.943 0.14-0.693 0.391-0.943c0.25-0.25 0.589-0.39 0.943-0.39h21.333zM26.667 5.333c0.354 0 0.693 0.14 0.943 0.391s0.391 0.589 0.391 0.943-0.14 0.693-0.391 0.943c-0.25 0.25-0.589 0.39-0.943 0.39h-21.333c-0.354 0-0.693-0.14-0.943-0.391s-0.391-0.589-0.391-0.943c0-0.354 0.14-0.693 0.391-0.943s0.589-0.391 0.943-0.391h21.333z"></path>
</symbol>
<symbol id="select-arrow"  viewBox="0 0 12 8" fill="none" xmlns="http://www.w3.org/2000/svg">
  <path d="M5.99957 7.16669C5.86686 7.16731 5.7395 7.11444 5.64624 7.02002L0.312906 1.68669C0.129333 1.48968 0.13475 1.18268 0.325158 0.992272C0.515566 0.801864 0.822566 0.796448 1.01957 0.98002L5.99957 5.96002L10.9796 0.98002C11.1766 0.796448 11.4836 0.801864 11.674 0.992272C11.8644 1.18268 11.8698 1.48968 11.6862 1.68669L6.35291 7.02002C6.25965 7.11444 6.13228 7.16731 5.99957 7.16669Z" fill="#202053" />
</symbol>
</defs>
</svg>
